<?xml version="1.0" standalone="no"?>
<!DOCTYPE svg PUBLIC "-//W3C//DTD SVG 20010904//EN"
 "http://www.w3.org/TR/2001/REC-SVG-20010904/DTD/svg10.dtd">
<svg version="1.0" xmlns="http://www.w3.org/2000/svg"
 width="1280.000000pt" height="870.000000pt" viewBox="0 0 1280.000000 870.000000"
 preserveAspectRatio="xMidYMid meet">
<metadata>
Created by potrace 1.15, written by Peter Selinger 2001-2017
</metadata>
<g transform="translate(0.000000,870.000000) scale(0.100000,-0.100000)"
fill="#000000" stroke="none">
<path d="M2765 8694 c-16 -2 -66 -9 -110 -15 -590 -78 -1135 -462 -1418 -999
-317 -601 -293 -1314 63 -1895 252 -412 684 -729 1155 -849 256 -65 595 -73
842 -22 299 63 585 195 810 374 43 35 52 48 58 84 70 461 256 851 575 1207
102 114 104 122 90 334 -46 681 -444 1280 -1055 1585 -264 132 -505 190 -810
197 -93 2 -183 1 -200 -1z"/>
<path d="M9715 8694 c-16 -2 -66 -9 -110 -15 -379 -50 -763 -237 -1054 -514
-274 -261 -478 -636 -551 -1010 -23 -124 -40 -343 -32 -425 5 -51 10 -60 86
-145 106 -118 171 -201 239 -305 165 -256 284 -557 331 -845 16 -94 19 -102
54 -134 65 -59 243 -171 367 -232 143 -69 292 -120 458 -155 167 -35 437 -43
617 -20 439 58 821 252 1130 572 678 704 716 1796 89 2549 -291 349 -703 583
-1159 660 -91 15 -402 28 -465 19z"/>
<path d="M6140 6944 c-762 -104 -1397 -670 -1590 -1420 -290 -1124 491 -2246
1652 -2373 1024 -112 1966 636 2093 1662 47 383 -16 749 -192 1096 -286 568
-828 954 -1456 1036 -144 18 -365 18 -507 -1z"/>
<path d="M11300 5039 c-230 -188 -512 -337 -792 -418 -445 -128 -902 -120
-1340 26 -129 42 -348 143 -464 212 l-51 31 -7 -67 c-26 -268 -109 -548 -233
-793 -96 -187 -196 -331 -365 -523 -39 -44 -41 -49 -24 -59 126 -70 451 -373
578 -538 247 -321 435 -707 578 -1187 l34 -113 1793 0 1793 0 0 75 c0 123 -19
407 -41 600 -88 791 -320 1565 -610 2030 -190 305 -447 577 -719 762 l-45 31
-85 -69z"/>
<path d="M1354 5057 c-179 -123 -414 -346 -540 -512 -94 -124 -206 -298 -273
-425 -300 -572 -504 -1455 -537 -2323 l-7 -187 1794 2 1793 3 41 135 c228 745
560 1254 1060 1627 55 41 101 78 103 82 1 4 -25 37 -58 74 -311 339 -517 792
-572 1256 l-12 101 -50 -31 c-116 -69 -335 -170 -464 -212 -655 -218 -1363
-126 -1937 251 -66 43 -154 106 -195 140 -41 34 -77 62 -80 61 -3 0 -32 -19
-66 -42z"/>
<path d="M7730 3229 c-156 -119 -405 -249 -609 -318 -388 -131 -832 -153
-1231 -60 -278 64 -565 194 -798 361 -51 37 -89 58 -98 54 -37 -14 -202 -135
-302 -221 -96 -83 -205 -199 -314 -336 -69 -86 -199 -294 -262 -419 -210 -414
-377 -1014 -461 -1662 -19 -151 -45 -469 -45 -559 l0 -69 2792 0 2791 0 -6
148 c-30 686 -198 1451 -439 2002 -202 462 -488 823 -849 1070 -48 33 -91 60
-96 59 -4 0 -37 -23 -73 -50z"/>
</g>
</svg>
