<?xml version="1.0" encoding="utf-8"?>
<!-- Generator: Adobe Illustrator 18.0.0, SVG Export Plug-In . SVG Version: 6.00 Build 0)  -->
<!DOCTYPE svg PUBLIC "-//W3C//DTD SVG 1.1//EN" "http://www.w3.org/Graphics/SVG/1.1/DTD/svg11.dtd">
<svg version="1.1" id="Artwork" xmlns="http://www.w3.org/2000/svg" xmlns:xlink="http://www.w3.org/1999/xlink" x="0px" y="0px"
	 viewBox="0 0 512 512" enable-background="new 0 0 512 512" xml:space="preserve" fill="#FFF" width="20" height="20">
<g>
	<path d="M202.7,259.7l-31.5,31.5c-5.6,5.6-8.6,13-8.6,20.9c0,7.9,3.1,15.3,8.6,20.9l6.1,6.1l-3.7,3.7c-11.1,11.1-29.2,11.1-40.4,0
		l-31.4-31.4c-20.7-20.7-54.3-20.7-75,0c-20.7,20.7-20.7,54.3,0,75l31.4,31.5c5.4,5.4,8.4,12.6,8.4,20.2s-3,14.8-8.4,20.2
		c-4.8,4.8-4.8,12.5,0,17.3c2.4,2.4,5.5,3.6,8.7,3.6c3.1,0,6.3-1.2,8.7-3.6c10-10,15.5-23.3,15.5-37.5s-5.5-27.5-15.5-37.5
		l-31.4-31.5c-11.1-11.1-11.1-29.2,0-40.4s29.2-11.1,40.4,0L116,360c20.7,20.7,54.3,20.7,75,0l3.7-3.7l6.1,6.1
		c5.8,5.8,13.3,8.6,20.9,8.6c7.6,0,15.1-2.9,20.9-8.6l31.5-31.5c11.4,3.7,23.2,5.7,35,5.7c28.7,0,57.4-10.9,79.2-32.7l55.1-55.1
		l9.9,9.9c2.4,2.4,5.5,3.6,8.7,3.6s6.3-1.2,8.7-3.6c4.8-4.8,4.8-12.5,0-17.3l-40.5-40.5l67-67c4.8-4.8,4.8-12.5,0-17.3
		c-4.8-4.8-12.5-4.8-17.3,0l-67,67L350.2,121l67-67c4.8-4.8,4.8-12.5,0-17.3c-4.8-4.8-12.5-4.8-17.3,0l-67,67l-40.5-40.5
		c-4.8-4.8-12.5-4.8-17.3,0c-4.8,4.8-4.8,12.5,0,17.3l9.9,9.9l-55.1,55.1C199,176.4,190,220.8,202.7,259.7z M247.1,286.6
		c-34.1-34.1-34.1-89.6,0-123.7l55.1-55.1L426,231.4l-55.1,55.1C336.7,320.7,281.2,320.7,247.1,286.6z M213.7,283.4
		c4.5,7.3,9.8,14.2,16.1,20.5s13.2,11.6,20.5,16.1l-25.2,25.2c-1.9,2-5.1,2-7.1,0l-29.5-29.5c-1.3-1.3-1.5-2.8-1.5-3.5
		c0-0.8,0.2-2.3,1.5-3.5L213.7,283.4z"/>
</g>
</svg>
