<?xml version="1.0" encoding="utf-8"?>
<!-- Svg Vector Icons : http://www.onlinewebfonts.com/icon -->
<!DOCTYPE svg PUBLIC "-//W3C//DTD SVG 1.1//EN" "http://www.w3.org/Graphics/SVG/1.1/DTD/svg11.dtd">
<svg version="1.1" xmlns="http://www.w3.org/2000/svg" fill="#BBB" xmlns:xlink="http://www.w3.org/1999/xlink" x="0px" y="0px" viewBox="0 0 1000 1000" enable-background="new 0 0 1000 1000" xml:space="preserve">
<metadata> Svg Vector Icons : http://www.onlinewebfonts.com/icon </metadata>
<g><g transform="translate(0.000000,511.000000) scale(0.100000,-0.100000)"><path d="M8054.7,3770.9v-615.7H6756.3c-1424.6,0-1476.2-3.8-1786-114.7c-562.2-204.6-1015.4-719-1151.1-1309.9c-17.2-68.8-38.2-227.5-47.8-353.8c-15.3-202.7-22.9-242.9-78.4-344.2c-68.8-130-130-187.4-273.4-263.9l-97.5-51.6L1712,711.4l-1612-5.7v-610v-611.9l1612-3.8l1610.1-5.7l95.6-47.8c124.3-61.2,237.1-175.9,294.5-296.4c34.4-72.7,49.7-147.2,61.2-317.4c26.8-388.2,114.7-661.6,302.1-946.5c252.4-382.4,623.4-646.3,1090-778.3c141.5-40.2,179.7-42.1,1516.4-47.8l1372.9-5.7l3.8-600.4l5.7-602.3l914,912.1l912.1,914l-917.9,917.9l-917.9,917.9v-617.6V-1742l-1304.1,5.7l-1306,5.7l-95.6,47.8c-124.3,61.2-237.1,175.9-294.5,296.4c-34.4,72.7-49.7,147.2-61.2,317.4c-7.6,122.4-32.5,294.5-55.5,382.4c-49.7,204.6-200.8,508.7-325.1,663.5l-95.6,118.6l95.6,118.6c124.3,154.9,275.4,458.9,325.1,663.5c23,88,47.8,260.1,55.5,382.4c11.5,170.2,26.8,244.8,61.2,317.4c57.4,120.5,170.2,235.2,294.5,296.4l95.6,47.8l1306,5.7l1304.1,5.7v-617.6V698l921.7,923.6l923.6,921.7L8976.4,3465l-921.7,923.6V3770.9z"/></g></g>
</svg>