<?xml version="1.0" encoding="utf-8"?>
<!-- Svg Vector Icons : http://www.onlinewebfonts.com/icon -->
<!DOCTYPE svg PUBLIC "-//W3C//DTD SVG 1.1//EN" "http://www.w3.org/Graphics/SVG/1.1/DTD/svg11.dtd">
<svg version="1.1" xmlns="http://www.w3.org/2000/svg" fill="#BBB" xmlns:xlink="http://www.w3.org/1999/xlink" x="0px" y="0px" viewBox="0 0 1000 1000" enable-background="new 0 0 1000 1000" xml:space="preserve">
<metadata> Svg Vector Icons : http://www.onlinewebfonts.com/icon </metadata>
<g><g transform="translate(0.000000,230.000000) scale(0.100000,-0.100000)"><path d="M2112.7,2156.9c-157.4-21.3-336.2-55.3-400-80.8l-114.9-42.5l204.3-225.5c114.9-119.2,348.9-353.2,523.4-519.2c174.5-161.7,408.5-412.8,527.7-548.9c200-242.6,208.5-263.8,187.3-463.8c-17-204.3-38.3-229.8-442.6-634.1c-412.7-404.3-429.8-417-617-417c-251.1,0-365.9,89.4-1097.9,825.5C568.1,369.7,295.7,629.3,283,629.3c-46.8,0-123.4-468.1-123.4-740.4c4.3-1238.3,1008.5-2234,2255.3-2238.3H2734l2510.6-2506.4C6993.5-6600.4,7814.8-7391.9,7946.7-7460c136.1-68.1,289.3-102.1,536.2-114.9c306.3-17,378.7-4.2,578.7,85.1c302.1,140.4,502.2,319.1,655.3,595.7c110.6,204.2,123.4,263.8,123.4,608.5c0,314.9-17,421.3-102.1,595.7c-80.9,170.2-604.3,714.9-2570.2,2680.8L4695.7-540.9l-8.5,446.8c-4.3,263.8-34,527.7-76.6,651.1C4257.4,1650.6,3248.9,2293.1,2112.7,2156.9z M8861.6-5664.2c412.7-191.5,565.9-621.3,348.9-1004.3c-246.8-434.1-825.5-480.8-1166-93.6c-310.6,357.5-182.9,897.9,259.6,1097.9C8525.4-5566.4,8648.9-5566.4,8861.6-5664.2z"/><path d="M8478.7,2144.2c-93.7-29.8-217-76.6-276.6-110.6C8070.1,1965.4,5521.2-562.2,5521.2-626c0-25.5,72.3-119.1,161.7-204.2l157.5-157.5L7180.8,352.7c736.1,736.2,1361.7,1340.4,1391.4,1340.4c72.4,0,183-123.4,183-204.2c0-38.3-595.7-668.1-1327.7-1400L6099.9-1243l187.2-191.5l191.5-191.5L7819.1-285.6c736.1,736.2,1361.7,1340.4,1391.4,1340.4c72.4,0,183-123.4,183-204.2c0-34.1-600-668.1-1327.7-1400L6738.2-1881.3l170.2-170.2l170.2-170.2L8397.8-894.1C9257.3-30.3,9746.7,497.4,9797.8,608c195.7,425.5,106.4,919.1-234,1259.6C9261.6,2169.7,8870.1,2267.6,8478.7,2144.2z"/><path d="M2670.2-4498.3c-727.7-727.6-744.7-744.7-978.7-787.2c-127.7-25.5-276.6-63.8-327.7-85.1c-55.3-21.3-340.4-408.5-680.8-914.9l-583-876.6l217-217l217-217l897.9,583c493.6,323.4,902.1,617,914.9,659.6c8.5,38.3,34.1,153.2,46.8,259.6c17,106.4,51.1,229.8,72.3,276.6c25.5,46.8,370.2,417,770.2,817l731.9,736.2L3712.7-4009c-140.4,140.4-263.8,255.3-276.6,255.3C3423.4-3753.7,3078.7-4089.8,2670.2-4498.3z"/></g></g>
</svg>